<svg id="Layer_1" enable-background="new 0 0 512 512" height="512" viewBox="0 0 512 512" width="512" xmlns="http://www.w3.org/2000/svg"><g><g><g><g><path d="m7.5 38.5h497v435h-497z" fill="#fff6cc"/><path d="m464.5 38.5h40v435h-40z" fill="#fff1b5"/><path d="m7.5 38.5h497v57.167h-497z" fill="#7b7b7f"/><path d="m464.5 38.5h40v57.167h-40z" fill="#6b6b73"/></g><path d="m7.5 310.227h497v163.273h-497z" fill="#80e1ff"/><path d="m464.5 310.227h40v163.273h-40z" fill="#59d8ff"/><g><path d="m63.546 232.737h171.963v191.412h-171.963z" fill="#ff7de9"/><path d="m195.509 232.737h40v191.412h-40z" fill="#ff5ee4"/><path d="m276.491 191h171.963v190.763h-171.963z" fill="#fd0"/></g><g><g><g><circle cx="362.472" cy="286.382" fill="#ff7de9" r="57.418"/></g></g></g><g><g><g><circle cx="148.851" cy="330.442" fill="#fd0" r="39.829"/></g></g></g></g></g><g><path d="m41.922 74.583c9.992 0 10.008-15 0-15-9.992 0-10.008 15 0 15z"/><path d="m68.755 74.583c9.992 0 10.008-15 0-15-9.992 0-10.008 15 0 15z"/><path d="m95.589 74.583c9.992 0 10.008-15 0-15-9.992 0-10.009 15 0 15z"/><path d="m504.5 31h-93.545c-9.697 0-9.697 15 0 15h86.045v42.167h-482v-42.167h355.993c9.697 0 9.697-15 0-15h-363.493c-4.142 0-7.5 3.358-7.5 7.5v435c0 4.142 3.358 7.5 7.5 7.5h497c4.142 0 7.5-3.358 7.5-7.5v-435c0-4.142-3.358-7.5-7.5-7.5zm-7.5 72.167v199.56h-41.046v-111.727c0-4.142-3.358-7.5-7.5-7.5h-171.963c-4.142 0-7.5 3.358-7.5 7.5v111.727h-25.981v-69.99c0-4.142-3.358-7.5-7.5-7.5h-171.964c-4.142 0-7.5 3.358-7.5 7.5v69.99h-41.046v-199.56zm-213.009 95.333h156.963v175.763h-156.963zm-268.991 267.5v-148.273h41.046v106.422c0 4.142 3.358 7.5 7.5 7.5h68.477c9.697 0 9.697-15 0-15h-60.977v-176.412h156.963v176.412h-56.176c-9.697 0-9.697 15 0 15h63.676c4.142 0 7.5-3.358 7.5-7.5v-106.422h25.981v64.037c0 4.142 3.358 7.5 7.5 7.5h171.963c4.142 0 7.5-3.358 7.5-7.5v-64.037h41.047v148.273z"/><path d="m63.546 163.5h171.963c9.697 0 9.697-15 0-15h-171.963c-9.697 0-9.697 15 0 15z"/><path d="m63.546 198.5h119.667c9.697 0 9.697-15 0-15h-119.667c-9.697 0-9.697 15 0 15z"/><path d="m448.454 416.648h-102.454c-9.697 0-9.697 15 0 15h102.454c9.697 0 9.697-15 0-15z"/><path d="m415.121 163.5h33.333c9.697 0 9.697-15 0-15h-33.333c-9.698 0-9.698 15 0 15z"/><path d="m333.569 228.253c-32.052 15.938-45.163 54.979-29.226 87.032 15.699 31.574 55.357 44.974 87.032 29.226 32.052-15.937 45.163-54.979 29.226-87.032-15.937-32.052-54.978-45.163-87.032-29.226zm51.128 102.826c-24.276 12.073-54.896 1.715-66.921-22.473-12.255-24.646-2.174-54.667 22.473-66.921 24.129-12.147 54.623-2.411 66.921 22.473 12.254 24.645 2.173 54.666-22.473 66.921z"/><path d="m338.333 261.5c-9.652 0-9.668 15 0 15 9.652 0 9.668-15 0-15z"/><path d="m392.333 286.167c-9.652 0-9.668 15 0 15 9.652 0 9.668-15 0-15z"/><path d="m366.333 307.5c-9.652 0-9.668 15 0 15 9.652 0 9.668-15 0-15z"/><path d="m196.18 330.442c0-2.941-.27-5.819-.786-8.613l18.589-7.406c9.009-3.589 3.456-17.524-5.552-13.935l-18.086 7.206c-27.692-48-100.083-19.706-87.274 34.773l-17.998 7.171c-8.874 3.536-3.139 17.399 5.552 13.935l18.531-7.384c25.537 39.028 86.616 21.509 87.024-25.747zm-79.658 0c.31-32.586 42.583-44.288 59.734-17.134l-59.095 23.545c-.418-2.072-.639-4.216-.639-6.411zm32.329 32.329c-10.266 0-19.429-4.81-25.355-12.295l57.556-22.932c1.657 18.571-13.499 35.227-32.201 35.227z"/></g></g></svg>