<svg id="Layer_5" enable-background="new 0 0 64 64" height="512" viewBox="0 0 64 64" width="512" xmlns="http://www.w3.org/2000/svg"><g><g><g><path d="m62 4v10h-60v-10c0-1.1.9-2 2-2h56c1.1 0 2 .9 2 2z" fill="#b4dd7f"/></g><g><path d="m56 10h-18c-1.105 0-2-.895-2-2 0-1.105.895-2 2-2h18c1.105 0 2 .895 2 2 0 1.105-.895 2-2 2z" fill="#ffeaa7"/></g><g><path d="m60 48h-56c-1.105 0-2-.895-2-2v-32h60v32c0 1.105-.895 2-2 2z" fill="#e6e9ed"/></g><g><circle cx="22" cy="46" fill="#69d6f4" r="16"/></g><g><path d="m52 38h6v6h-6z" fill="#ff826e"/></g><g><path d="m42 38h6v6h-6z" fill="#ff826e"/></g><g><path d="m58 20v12c0 1.1-.9 2-2 2h-23.41c0-.01-.01 0-.01 0-2.82-2.49-6.52-4-10.58-4-1.38 0-2.72.17-4 .5v-10.5c0-1.1.9-2 2-2h36c1.1 0 2 .9 2 2z" fill="#fcd770"/></g><g><path d="m22 6h4v4h-4z" fill="#e6e9ed"/></g><g><path d="m14 6h4v4h-4z" fill="#e6e9ed"/></g><g><path d="m6 6h4v4h-4z" fill="#e6e9ed"/></g></g><g><path d="m60 1h-56c-1.654 0-3 1.346-3 3v42c0 1.654 1.346 3 3 3h1.281c1.423 7.946 8.37 14 16.719 14s15.296-6.054 16.719-14h21.281c1.654 0 3-1.346 3-3v-42c0-1.654-1.346-3-3-3zm-56 2h56c.551 0 1 .448 1 1v9h-58v-9c0-.552.449-1 1-1zm18 58c-2.232 0-4.254-2.387-5.546-6h11.093c-1.293 3.613-3.315 6-5.547 6zm-6.159-8c-.462-1.821-.746-3.858-.816-6h13.951c-.07 2.142-.354 4.179-.816 6zm-8.79-6h5.975c.063 2.139.322 4.16.752 6h-5.034c-.961-1.812-1.55-3.845-1.693-6zm14.949-16c2.232 0 4.254 2.387 5.546 6h-11.092c1.292-3.613 3.314-6 5.546-6zm6.159 8c.462 1.821.746 3.858.816 6h-13.951c.07-2.142.354-4.179.816-6zm2.815 8h5.975c-.143 2.155-.732 4.188-1.693 6h-5.034c.43-1.84.689-3.861.752-6zm0-2c-.063-2.139-.322-4.16-.752-6h5.034c.961 1.812 1.55 3.845 1.693 6zm-1.31-8c-.658-2.023-1.528-3.762-2.566-5.089 2.759 1.002 5.137 2.785 6.874 5.089zm3.268-4c-2.958-2.492-6.77-4-10.932-4-1.025 0-2.024.107-3 .281v-9.281c0-.552.449-1 1-1h36c.551 0 1 .448 1 1v12c0 .552-.449 1-1 1zm-18.596 4h-4.308c1.736-2.304 4.115-4.087 6.874-5.089-1.038 1.327-1.908 3.066-2.566 5.089zm-5.592 2h5.034c-.43 1.84-.689 3.861-.752 6h-5.975c.143-2.155.732-4.188 1.693-6zm1.284 16h4.308c.658 2.023 1.528 3.762 2.566 5.089-2.759-1.002-5.137-2.785-6.874-5.089zm17.07 5.089c1.038-1.327 1.908-3.066 2.566-5.089h4.308c-1.737 2.304-4.115 4.087-6.874 5.089zm32.902-13.089h-21.051c.02-.333.051-.662.051-1 0-4.195-1.535-8.032-4.062-11h21.062c1.654 0 3-1.346 3-3v-12c0-1.654-1.346-3-3-3h-36c-1.654 0-3 1.346-3 3v9.753c-.688.212-1.352.479-2 .773v-1.526h-10v2h9.017c-5.359 2.864-9.017 8.511-9.017 15 0 .338.031.667.051 1h-1.051c-.551 0-1-.448-1-1v-31h58v31c0 .552-.449 1-1 1z"/><path d="m11 5h-6v6h6zm-2 4h-2v-2h2z"/><path d="m19 5h-6v6h6zm-2 4h-2v-2h2z"/><path d="m27 5h-6v6h6zm-2 4h-2v-2h2z"/><path d="m38 11h18c1.654 0 3-1.346 3-3s-1.346-3-3-3h-18c-1.654 0-3 1.346-3 3s1.346 3 3 3zm7.414-2-2-2h5.172l2 2zm11.586-1c0 .552-.449 1-1 1h-2.586l-2-2h4.586c.551 0 1 .448 1 1zm-19-1h2.586l2 2h-4.586c-.551 0-1-.448-1-1s.449-1 1-1z"/><path d="m5 17h2v2h-2z"/><path d="m9 17h6v2h-6z"/><path d="m5 21h10v2h-10z"/><path d="m5 25h10v2h-10z"/><path d="m41 45h8v-8h-8zm2-6h4v4h-4z"/><path d="m51 45h8v-8h-8zm2-6h4v4h-4z"/></g></g></svg>